<svg xmlns="http://www.w3.org/2000/svg" width="160.488" height="39" viewBox="0 0 160.488 39">
  <g id="Logo" transform="translate(-372.512 -6597)">
    <text id="ByCol.ai" transform="translate(414 6626)" fill="#fff" font-size="28" font-family="Poppins-Bold, Poppins" font-weight="700"><t<div class='ligne' x="0" y="0">ByCol.ai</t<div class='ligne'></text>
    <g id="Vector_Smart_Object3" data-name="Vector Smart Object3" transform="translate(347.576 6589.327)">
      <g id="Groupe_2" data-name="Groupe 2" transform="matrix(0.208, -0.978, 0.978, 0.208, 7.816, 63.998)">
        <path id="Tracé_9" data-name="Tracé 9" d="M34.527,41.3l10.7-6.276H41.893L34.231,38.67Z" fill="#fff"/>
        <path id="Tracé_10" data-name="Tracé 10" d="M45.229,35.027V36.4l-10.7,6.276V41.022Z" fill="#fff"/>
        <path id="Tracé_11" data-name="Tracé 11" d="M27.424,42.673h7.1L45.583,23.266l-.348-11.593Z" fill="#fff"/>
        <path id="Tracé_12" data-name="Tracé 12" d="M45.182,23.969l.053-12.3L59.424,36.418H52.3Z" fill="#fff"/>
        <path id="Tracé_13" data-name="Tracé 13" d="M45.235,11.673v2.5l8.888,13Z" fill="#fff"/>
        <path id="Tracé_14" data-name="Tracé 14" d="M45.247,11.673v2.5l-8.888,13Z" fill="#fff"/>
        <path id="Tracé_15" data-name="Tracé 15" d="M43.153,32.563h2.029V29.025Z" fill="#fff"/>
        <path id="Tracé_16" data-name="Tracé 16" d="M45.182,29.025v3.538h2.029Z" fill="#fff"/>
      </g>
    </g>
  </g>
</svg>
